<svg data-v-423bf9ae=""
  xmlns="http://www.w3.org/2000/svg" viewBox="0 0 37.83114069496043 60" class="font"
  style="enable-background:new 0 0 121.9 121.9;" width="100" height="100">  <!---->  <!---->  <!---->
  <g data-v-423bf9ae="" id="08b4fac0-83d6-4a14-999a-2945a5926f6f" fill="#eee" transform="matrix(4.647560085914902,0,0,4.647560085914902,0.6041823429937985,-16.777693007506173)">
    <path d="M3.95 5.53L3.95 5.53L3.95 5.53Q4.00 5.53 4.14 5.59L4.14 5.59L4.14 5.59Q4.27 5.66 4.27 5.95L4.27 5.95L4.27 5.95Q4.27 6.44 3.68 8.29L3.68 8.29L3.68 8.29Q3.44 8.99 3.26 9.41L3.26 9.41L3.26 9.41Q3.08 9.83 2.93 10.05L2.93 10.05L2.93 10.05Q2.79 10.28 2.67 10.35L2.67 10.35L2.67 10.35Q2.55 10.42 2.45 10.42L2.45 10.42L2.45 10.42Q1.88 10.42 1.51 9.77L1.51 9.77L1.51 9.77Q1.46 9.70 1.41 9.49L1.41 9.49L1.41 9.49Q1.36 9.28 1.33 8.76L1.33 8.76L1.33 7.69L1.33 6.48L1.33 6.48Q1.33 6.45 1.27 6.35L1.27 6.35L1.27 6.35Q1.22 6.24 0.97 6.08L0.97 6.08L0.97 6.08Q0.88 6.52 0.63 7.39L0.63 7.39L0.63 7.39Q0.63 7.43 0.55 7.60L0.55 7.60L0.55 7.60Q0.52 7.66 0.50 7.69L0.50 7.69L0.50 7.69Q0.49 7.71 0.48 7.73L0.48 7.73L0.48 7.73Q0.48 7.78 0.41 7.83L0.41 7.83L0.41 7.83Q0.34 7.90 0.24 7.85L0.24 7.85L0.03 7.80L0.03 7.80Q-0.13 7.74-0.13 7.60L-0.13 7.60L-0.13 7.60Q-0.13 7.59-0.13 7.55L-0.13 7.55L-0.13 7.55Q-0.13 7.52-0.10 7.43L-0.10 7.43L-0.10 7.43Q-0.08 7.34-0.04 7.17L-0.04 7.17L-0.04 7.17Q0 7 0.08 6.71L0.08 6.71L0.08 6.71Q0.27 6.02 0.27 5.60L0.27 5.60L0.27 5.60Q0.27 5.57 0.25 5.47L0.25 5.47L0.25 5.47Q0.24 5.36 0.17 5.17L0.17 5.17L0.17 5.17Q0.03 4.83 0.03 4.56L0.03 4.56L0.03 4.56Q0.03 4.27 0.08 4.09L0.08 4.09L0.08 4.09Q0.14 3.91 0.22 3.80L0.22 3.80L0.22 3.80Q0.31 3.70 0.41 3.65L0.41 3.65L0.41 3.65Q0.52 3.61 0.62 3.61L0.62 3.61L0.62 3.61Q0.67 3.61 0.76 3.63L0.76 3.63L0.76 3.63Q0.84 3.65 0.92 3.72L0.92 3.72L0.92 3.72Q0.99 3.79 1.06 3.93L1.06 3.93L1.06 3.93Q1.12 4.06 1.13 4.27L1.13 4.27L1.13 4.27Q1.15 4.41 1.11 4.76L1.11 4.76L1.11 4.76Q1.08 4.96 1.08 5.05L1.08 5.05L1.08 5.05Q1.08 5.15 1.08 5.21L1.08 5.21L1.08 5.21Q1.09 5.24 1.19 5.31L1.19 5.31L1.19 5.31Q1.29 5.38 1.60 5.53L1.60 5.53L1.60 5.53Q2.35 5.89 2.35 6.47L2.35 6.47L2.35 6.47Q2.35 6.50 2.35 6.57L2.35 6.57L2.35 6.57Q2.34 6.65 2.33 6.80L2.33 6.80L2.33 6.80Q2.32 6.96 2.30 7.22L2.30 7.22L2.30 7.22Q2.27 7.49 2.23 7.91L2.23 7.91L2.23 7.91Q2.20 8.20 2.18 8.40L2.18 8.40L2.18 8.40Q2.16 8.60 2.14 8.72L2.14 8.72L2.14 8.72Q2.13 8.85 2.12 8.93L2.12 8.93L2.12 8.93Q2.11 9.02 2.11 9.10L2.11 9.10L2.11 9.10Q2.11 9.44 2.18 9.52L2.18 9.52L2.18 9.52Q2.25 9.60 2.32 9.60L2.32 9.60L2.32 9.60Q2.34 9.59 2.39 9.53L2.39 9.53L2.39 9.53Q2.44 9.46 2.51 9.30L2.51 9.30L2.51 9.30Q2.59 9.14 2.69 8.87L2.69 8.87L2.69 8.87Q2.80 8.60 2.95 8.16L2.95 8.16L2.95 8.16Q3.43 6.79 3.54 6.05L3.54 6.05L3.54 6.05Q3.58 5.73 3.71 5.63L3.71 5.63L3.71 5.63Q3.84 5.53 3.95 5.53ZM7.27 11.02L7.27 11.02L7.27 11.02Q7.74 11.02 7.88 11.19L7.88 11.19L7.88 11.19Q8.01 11.35 8.01 11.49L8.01 11.49L8.01 11.49Q8.01 11.56 7.97 11.67L7.97 11.67L7.97 11.67Q7.92 11.77 7.77 11.87L7.77 11.87L7.69 11.91L7.62 11.89L7.62 11.89Q7.42 11.82 7.25 11.79L7.25 11.79L7.25 11.79Q7.07 11.77 6.89 11.77L6.89 11.77L6.89 11.77Q6.65 11.77 6.44 11.82L6.44 11.82L6.44 11.82Q6.48 12.15 6.51 12.37L6.51 12.37L6.51 12.37Q6.54 12.59 6.54 12.71L6.54 12.71L6.54 12.71Q6.55 12.84 6.56 12.89L6.56 12.89L6.56 12.89Q6.57 12.95 6.57 12.96L6.57 12.96L6.57 12.96Q6.57 14.42 5.95 15.46L5.95 15.46L5.95 15.46Q5.31 16.52 4.33 16.52L4.33 16.52L4.33 16.52Q3.47 16.52 2.88 15.95L2.88 15.95L2.88 15.95Q2.27 15.37 2.27 14.60L2.27 14.60L2.27 14.60Q2.27 13.64 3.12 12.78L3.12 12.78L3.12 12.78Q3.91 12.00 5.42 11.34L5.42 11.34L5.42 11.34Q5.25 10.81 4.77 10.50L4.77 10.50L4.77 10.50Q4.41 10.79 4.16 10.79L4.16 10.79L4.16 10.79Q3.91 10.79 3.77 10.73L3.77 10.73L3.77 10.73Q3.63 10.67 3.55 10.57L3.55 10.57L3.55 10.57Q3.47 10.47 3.45 10.38L3.45 10.38L3.45 10.38Q3.43 10.29 3.43 10.22L3.43 10.22L3.43 10.22Q3.43 9.91 3.72 9.76L3.72 9.76L3.72 9.76Q3.95 9.65 4.30 9.65L4.30 9.65L4.30 9.65Q4.98 8.85 5.24 8.23L5.24 8.23L5.24 8.23Q5.60 7.35 5.60 6.09L5.60 6.09L5.60 6.09Q5.60 5.78 5.54 5.61L5.54 5.61L5.54 5.61Q5.49 5.43 5.42 5.35L5.42 5.35L5.42 5.35Q5.35 5.28 5.26 5.26L5.26 5.26L5.26 5.26Q5.18 5.25 5.14 5.25L5.14 5.25L5.14 5.25Q4.86 5.25 4.55 5.60L4.55 5.60L4.55 5.60Q4.38 5.80 4.27 6.04L4.27 6.04L4.27 6.04Q4.16 6.29 4.07 6.51L4.07 6.51L4.07 6.51Q4.00 6.71 3.95 6.92L3.95 6.92L3.95 6.92Q3.89 7.13 3.71 7.13L3.71 7.13L3.71 7.13Q3.40 7.13 3.40 6.68L3.40 6.68L3.40 6.68Q3.40 6.45 3.50 6.13L3.50 6.13L3.50 6.13Q3.60 5.81 3.75 5.42L3.75 5.42L3.75 5.42Q4.21 4.35 4.91 4.35L4.91 4.35L4.91 4.35Q5.61 4.35 6.03 4.86L6.03 4.86L6.03 4.86Q6.45 5.35 6.45 6.12L6.45 6.12L6.45 6.12Q6.45 8.22 5.21 9.95L5.21 9.95L5.21 9.95Q5.42 10.08 5.57 10.19L5.57 10.19L5.57 10.19Q5.73 10.29 5.81 10.40L5.81 10.40L5.81 10.40Q6.02 10.64 6.24 11.12L6.24 11.12L6.24 11.12Q6.54 11.06 6.79 11.04L6.79 11.04L6.79 11.04Q7.04 11.02 7.27 11.02ZM5.28 14.95L5.28 14.95L5.28 14.95Q5.75 14.14 5.75 12.88L5.75 12.88L5.75 12.88Q5.75 12.64 5.74 12.43L5.74 12.43L5.74 12.43Q5.73 12.22 5.68 12.03L5.68 12.03L5.68 12.03Q4.79 12.28 4.05 13.10L4.05 13.10L4.05 13.10Q3.25 13.99 3.25 14.80L3.25 14.80L3.25 14.80Q3.25 15.22 3.50 15.48L3.50 15.48L3.50 15.48Q3.72 15.74 4.13 15.74L4.13 15.74L4.13 15.74Q4.80 15.74 5.28 14.95Z"></path>
  </g>  <!---->  <!---->
</svg>
